@startuml
skinparam noteBackgroundColor #f5f5f5
skinparam noteBorderColor #c90000
skinparam arrowColor #218c00
skinparam stateBackgroundColor #faf4b4
skinparam stateBorderColor #c90000
skinparam linetype polyline
skinparam arrowThickness 1

[*] --> ShoppingCenterClosed : Start Day

ShoppingCenterClosed --> ShoppingCenterOpened
note on link
  Open Shopping Center
end note

ShoppingCenterOpened --> CustomerArrived
note on link
  Register Customer Arrival
end note

CustomerArrived --> CustomerSelectingProducts
note on link
  Select Products
end note

CustomerSelectingProducts --> CustomerWaiting
note on link
  Join Queue
end note

CustomerSelectingProducts -right-> CustomerSelectingProducts
note on link
  Continue Shopping
end note

CustomerWaiting --> CustomerServed
note on link
  Serve at Cash Register
end note

CustomerServed -right-> CustomerSelectingProducts
note on link
  Continue Shopping
end note

CustomerServed --> ShoppingCenterOpened
note on link
  Exit Shopping Center
end note

CustomerWaiting -up-> ShoppingCenterOpened
note on link
  Abandon Queue
end note

ShoppingCenterOpened --> ShoppingCenterClosed
note on link
  Close Shopping Center
end note

ShoppingCenterClosed --> [*]
note on link
  End Day
end note

@enduml
